<svg width="48" height="48" viewBox="0 0 48 48" fill="none" xmlns="http://www.w3.org/2000/svg">
<path d="M42.75 9H15.375C15.1687 9 15 9.16875 15 9.375V12C15 12.2063 15.1687 12.375 15.375 12.375H42.75C42.9563 12.375 43.125 12.2063 43.125 12V9.375C43.125 9.16875 42.9563 9 42.75 9ZM42.75 22.3125H15.375C15.1687 22.3125 15 22.4812 15 22.6875V25.3125C15 25.5188 15.1687 25.6875 15.375 25.6875H42.75C42.9563 25.6875 43.125 25.5188 43.125 25.3125V22.6875C43.125 22.4812 42.9563 22.3125 42.75 22.3125ZM42.75 35.625H15.375C15.1687 35.625 15 35.7937 15 36V38.625C15 38.8313 15.1687 39 15.375 39H42.75C42.9563 39 43.125 38.8313 43.125 38.625V36C43.125 35.7937 42.9563 35.625 42.75 35.625ZM4.875 10.6875C4.875 11.0322 4.9429 11.3736 5.07482 11.692C5.20673 12.0105 5.40009 12.2999 5.64384 12.5437C5.8876 12.7874 6.17698 12.9808 6.49546 13.1127C6.81394 13.2446 7.15528 13.3125 7.5 13.3125C7.84472 13.3125 8.18606 13.2446 8.50454 13.1127C8.82302 12.9808 9.1124 12.7874 9.35616 12.5437C9.59991 12.2999 9.79327 12.0105 9.92518 11.692C10.0571 11.3736 10.125 11.0322 10.125 10.6875C10.125 10.3428 10.0571 10.0014 9.92518 9.68296C9.79327 9.36448 9.59991 9.0751 9.35616 8.83134C9.1124 8.58759 8.82302 8.39423 8.50454 8.26232C8.18606 8.1304 7.84472 8.0625 7.5 8.0625C7.15528 8.0625 6.81394 8.1304 6.49546 8.26232C6.17698 8.39423 5.8876 8.58759 5.64384 8.83134C5.40009 9.0751 5.20673 9.36448 5.07482 9.68296C4.9429 10.0014 4.875 10.3428 4.875 10.6875V10.6875ZM4.875 24C4.875 24.3447 4.9429 24.6861 5.07482 25.0045C5.20673 25.323 5.40009 25.6124 5.64384 25.8562C5.8876 26.0999 6.17698 26.2933 6.49546 26.4252C6.81394 26.5571 7.15528 26.625 7.5 26.625C7.84472 26.625 8.18606 26.5571 8.50454 26.4252C8.82302 26.2933 9.1124 26.0999 9.35616 25.8562C9.59991 25.6124 9.79327 25.323 9.92518 25.0045C10.0571 24.6861 10.125 24.3447 10.125 24C10.125 23.6553 10.0571 23.3139 9.92518 22.9955C9.79327 22.677 9.59991 22.3876 9.35616 22.1438C9.1124 21.9001 8.82302 21.7067 8.50454 21.5748C8.18606 21.4429 7.84472 21.375 7.5 21.375C7.15528 21.375 6.81394 21.4429 6.49546 21.5748C6.17698 21.7067 5.8876 21.9001 5.64384 22.1438C5.40009 22.3876 5.20673 22.677 5.07482 22.9955C4.9429 23.3139 4.875 23.6553 4.875 24V24ZM4.875 37.3125C4.875 37.6572 4.9429 37.9986 5.07482 38.317C5.20673 38.6355 5.40009 38.9249 5.64384 39.1687C5.8876 39.4124 6.17698 39.6058 6.49546 39.7377C6.81394 39.8696 7.15528 39.9375 7.5 39.9375C7.84472 39.9375 8.18606 39.8696 8.50454 39.7377C8.82302 39.6058 9.1124 39.4124 9.35616 39.1687C9.59991 38.9249 9.79327 38.6355 9.92518 38.317C10.0571 37.9986 10.125 37.6572 10.125 37.3125C10.125 36.9678 10.0571 36.6264 9.92518 36.308C9.79327 35.9895 9.59991 35.7001 9.35616 35.4563C9.1124 35.2126 8.82302 35.0192 8.50454 34.8873C8.18606 34.7554 7.84472 34.6875 7.5 34.6875C7.15528 34.6875 6.81394 34.7554 6.49546 34.8873C6.17698 35.0192 5.8876 35.2126 5.64384 35.4563C5.40009 35.7001 5.20673 35.9895 5.07482 36.308C4.9429 36.6264 4.875 36.9678 4.875 37.3125V37.3125Z" fill="black"/>
</svg>
