<svg width="48" height="48" viewBox="0 0 48 48" fill="none" xmlns="http://www.w3.org/2000/svg">
<path d="M10.586 10.586C10.9611 10.2111 11.4697 10.0004 12 10.0004C12.5303 10.0004 13.0389 10.2111 13.414 10.586L24 21.172L34.586 10.586C34.7705 10.395 34.9912 10.2426 35.2352 10.1378C35.4792 10.033 35.7416 9.97781 36.0072 9.9755C36.2728 9.97319 36.5361 10.0238 36.7819 10.1244C37.0277 10.2249 37.251 10.3734 37.4388 10.5612C37.6266 10.749 37.7751 10.9723 37.8756 11.2181C37.9762 11.4639 38.0268 11.7272 38.0245 11.9928C38.0222 12.2584 37.967 12.5208 37.8622 12.7648C37.7574 13.0088 37.605 13.2295 37.414 13.414L26.828 24L37.414 34.586C37.7783 34.9632 37.9799 35.4684 37.9753 35.9928C37.9708 36.5172 37.7605 37.0188 37.3896 37.3896C37.0188 37.7605 36.5172 37.9708 35.9928 37.9754C35.4684 37.9799 34.9632 37.7783 34.586 37.414L24 26.828L13.414 37.414C13.0368 37.7783 12.5316 37.9799 12.0072 37.9754C11.4828 37.9708 10.9812 37.7605 10.6104 37.3896C10.2395 37.0188 10.0292 36.5172 10.0247 35.9928C10.0201 35.4684 10.2217 34.9632 10.586 34.586L21.172 24L10.586 13.414C10.2111 13.0389 10.0004 12.5303 10.0004 12C10.0004 11.4697 10.2111 10.9611 10.586 10.586V10.586Z" fill="#0D0D0D"/>
</svg>
